<svg id="visual" viewBox="0 0 1920 1080" width="1920" height="1080" xmlns="http://www.w3.org/2000/svg" xmlns:xlink="http://www.w3.org/1999/xlink" version="1.1"><g stroke-width="1" stroke-linejoin="bevel"><path d="M886.3 515L1027.7 342L845.3 344Z" fill="#f7f9fa" stroke="#f7f9fa"></path><path d="M886.3 515L1103.7 511L1027.7 342Z" fill="#f7f9fa" stroke="#f7f9fa"></path><path d="M1027.7 342L842.3 195L845.3 344Z" fill="#e4e9ec" stroke="#e4e9ec"></path><path d="M1241 338L1105.7 173L1027.7 342Z" fill="#f0f4f5" stroke="#f0f4f5"></path><path d="M1027.7 342L1105.7 173L842.3 195Z" fill="#cad3da" stroke="#cad3da"></path><path d="M627 189L637 395L845.3 344Z" fill="#d1d9de" stroke="#d1d9de"></path><path d="M845.3 344L637 395L886.3 515Z" fill="#bec8d1" stroke="#bec8d1"></path><path d="M1103.7 511L1241 338L1027.7 342Z" fill="#cad3da" stroke="#cad3da"></path><path d="M832.3 719L1073.7 695L886.3 515Z" fill="#cad3da" stroke="#cad3da"></path><path d="M886.3 515L1073.7 695L1103.7 511Z" fill="#f7f9fa" stroke="#f7f9fa"></path><path d="M1103.7 511L1261 572L1241 338Z" fill="#d7dee3" stroke="#d7dee3"></path><path d="M617 527L832.3 719L886.3 515Z" fill="#b8c3cc" stroke="#b8c3cc"></path><path d="M637 395L617 527L886.3 515Z" fill="#d7dee3" stroke="#d7dee3"></path><path d="M1073.7 695L1261 572L1103.7 511Z" fill="#f0f4f5" stroke="#f0f4f5"></path><path d="M842.3 195L627 189L845.3 344Z" fill="#eaeef1" stroke="#eaeef1"></path><path d="M637 395L437.7 377L617 527Z" fill="#c4ced5" stroke="#c4ced5"></path><path d="M667 0L627 189L842.3 195Z" fill="#f7f9fa" stroke="#f7f9fa"></path><path d="M1241 338L1242 154L1105.7 173Z" fill="#c4ced5" stroke="#c4ced5"></path><path d="M1105.7 173L846.3 0L842.3 195Z" fill="#bec8d1" stroke="#bec8d1"></path><path d="M1316 0L1242 154L1505.3 203Z" fill="#e4e9ec" stroke="#e4e9ec"></path><path d="M1096.7 0L846.3 0L1105.7 173Z" fill="#c4ced5" stroke="#c4ced5"></path><path d="M1242 154L1096.7 0L1105.7 173Z" fill="#e4e9ec" stroke="#e4e9ec"></path><path d="M617 527L601 738L832.3 719Z" fill="#d1d9de" stroke="#d1d9de"></path><path d="M410.7 572L601 738L617 527Z" fill="#d7dee3" stroke="#d7dee3"></path><path d="M1073.7 695L1318 704L1261 572Z" fill="#d1d9de" stroke="#d1d9de"></path><path d="M1261 572L1505.3 506L1241 338Z" fill="#d1d9de" stroke="#d1d9de"></path><path d="M1297 882L1318 704L1073.7 695Z" fill="#c4ced5" stroke="#c4ced5"></path><path d="M1078.7 902L1073.7 695L832.3 719Z" fill="#dde3e8" stroke="#dde3e8"></path><path d="M846.3 0L667 0L842.3 195Z" fill="#e4e9ec" stroke="#e4e9ec"></path><path d="M423.7 210L437.7 377L627 189Z" fill="#c4ced5" stroke="#c4ced5"></path><path d="M627 189L437.7 377L637 395Z" fill="#f7f9fa" stroke="#f7f9fa"></path><path d="M863.3 920L1078.7 902L832.3 719Z" fill="#d1d9de" stroke="#d1d9de"></path><path d="M662 868L863.3 920L832.3 719Z" fill="#b8c3cc" stroke="#b8c3cc"></path><path d="M601 738L662 868L832.3 719Z" fill="#bec8d1" stroke="#bec8d1"></path><path d="M437.7 377L410.7 572L617 527Z" fill="#e4e9ec" stroke="#e4e9ec"></path><path d="M601 738L413.7 924L662 868Z" fill="#b8c3cc" stroke="#b8c3cc"></path><path d="M443.7 0L423.7 210L627 189Z" fill="#e4e9ec" stroke="#e4e9ec"></path><path d="M437.7 377L250.3 369L410.7 572Z" fill="#dde3e8" stroke="#dde3e8"></path><path d="M1505.3 203L1242 154L1241 338Z" fill="#cad3da" stroke="#cad3da"></path><path d="M1242 154L1316 0L1096.7 0Z" fill="#d7dee3" stroke="#d7dee3"></path><path d="M1318 704L1505.3 506L1261 572Z" fill="#c4ced5" stroke="#c4ced5"></path><path d="M410.7 572L439.7 728L601 738Z" fill="#b8c3cc" stroke="#b8c3cc"></path><path d="M1505.3 506L1528.3 394L1241 338Z" fill="#f0f4f5" stroke="#f0f4f5"></path><path d="M1078.7 902L1297 882L1073.7 695Z" fill="#f0f4f5" stroke="#f0f4f5"></path><path d="M1318 704L1476.3 728L1505.3 506Z" fill="#d1d9de" stroke="#d1d9de"></path><path d="M1528.3 394L1505.3 203L1241 338Z" fill="#bec8d1" stroke="#bec8d1"></path><path d="M1297 882L1476.3 728L1318 704Z" fill="#f7f9fa" stroke="#f7f9fa"></path><path d="M1505.3 506L1666.7 551L1528.3 394Z" fill="#cad3da" stroke="#cad3da"></path><path d="M667 0L443.7 0L627 189Z" fill="#e4e9ec" stroke="#e4e9ec"></path><path d="M863.3 920L1054.7 1080L1078.7 902Z" fill="#d1d9de" stroke="#d1d9de"></path><path d="M1078.7 902L1255 1080L1297 882Z" fill="#cad3da" stroke="#cad3da"></path><path d="M645 1080L857.3 1080L863.3 920Z" fill="#cad3da" stroke="#cad3da"></path><path d="M645 1080L863.3 920L662 868Z" fill="#e4e9ec" stroke="#e4e9ec"></path><path d="M857.3 1080L1054.7 1080L863.3 920Z" fill="#d7dee3" stroke="#d7dee3"></path><path d="M1666.7 0L1486.3 0L1505.3 203Z" fill="#cad3da" stroke="#cad3da"></path><path d="M1505.3 203L1486.3 0L1316 0Z" fill="#dde3e8" stroke="#dde3e8"></path><path d="M218.3 147L250.3 369L423.7 210Z" fill="#cad3da" stroke="#cad3da"></path><path d="M423.7 210L250.3 369L437.7 377Z" fill="#d7dee3" stroke="#d7dee3"></path><path d="M410.7 572L190.3 710L439.7 728Z" fill="#f7f9fa" stroke="#f7f9fa"></path><path d="M413.7 924L645 1080L662 868Z" fill="#b8c3cc" stroke="#b8c3cc"></path><path d="M439.7 728L413.7 924L601 738Z" fill="#bec8d1" stroke="#bec8d1"></path><path d="M190.3 710L413.7 924L439.7 728Z" fill="#bec8d1" stroke="#bec8d1"></path><path d="M1054.7 1080L1255 1080L1078.7 902Z" fill="#cad3da" stroke="#cad3da"></path><path d="M1297 882L1514.3 876L1476.3 728Z" fill="#e4e9ec" stroke="#e4e9ec"></path><path d="M1492.3 1080L1514.3 876L1297 882Z" fill="#c4ced5" stroke="#c4ced5"></path><path d="M1476.3 728L1666.7 551L1505.3 506Z" fill="#cad3da" stroke="#cad3da"></path><path d="M1686.7 750L1666.7 551L1476.3 728Z" fill="#d7dee3" stroke="#d7dee3"></path><path d="M1528.3 394L1695.7 389L1505.3 203Z" fill="#e4e9ec" stroke="#e4e9ec"></path><path d="M250.3 369L189.3 506L410.7 572Z" fill="#d7dee3" stroke="#d7dee3"></path><path d="M1666.7 551L1695.7 389L1528.3 394Z" fill="#f7f9fa" stroke="#f7f9fa"></path><path d="M443.7 0L218.3 147L423.7 210Z" fill="#d1d9de" stroke="#d1d9de"></path><path d="M250.3 369L0 347L189.3 506Z" fill="#b8c3cc" stroke="#b8c3cc"></path><path d="M189.3 506L190.3 710L410.7 572Z" fill="#f0f4f5" stroke="#f0f4f5"></path><path d="M1727.7 924L1686.7 750L1514.3 876Z" fill="#c4ced5" stroke="#c4ced5"></path><path d="M1514.3 876L1686.7 750L1476.3 728Z" fill="#cad3da" stroke="#cad3da"></path><path d="M1920 517L1920 356L1695.7 389Z" fill="#cad3da" stroke="#cad3da"></path><path d="M443.7 0L223.3 0L218.3 147Z" fill="#eaeef1" stroke="#eaeef1"></path><path d="M218.3 147L0 347L250.3 369Z" fill="#eaeef1" stroke="#eaeef1"></path><path d="M1743.7 156L1666.7 0L1505.3 203Z" fill="#c4ced5" stroke="#c4ced5"></path><path d="M1695.7 389L1743.7 156L1505.3 203Z" fill="#e4e9ec" stroke="#e4e9ec"></path><path d="M1920 356L1743.7 156L1695.7 389Z" fill="#f7f9fa" stroke="#f7f9fa"></path><path d="M207.3 930L399.7 1080L413.7 924Z" fill="#c4ced5" stroke="#c4ced5"></path><path d="M413.7 924L399.7 1080L645 1080Z" fill="#d1d9de" stroke="#d1d9de"></path><path d="M1255 1080L1492.3 1080L1297 882Z" fill="#bec8d1" stroke="#bec8d1"></path><path d="M190.3 710L207.3 930L413.7 924Z" fill="#cad3da" stroke="#cad3da"></path><path d="M0 195L0 347L218.3 147Z" fill="#c4ced5" stroke="#c4ced5"></path><path d="M189.3 506L0 568L190.3 710Z" fill="#cad3da" stroke="#cad3da"></path><path d="M190.3 710L0 909L207.3 930Z" fill="#c4ced5" stroke="#c4ced5"></path><path d="M1704.7 1080L1727.7 924L1514.3 876Z" fill="#f7f9fa" stroke="#f7f9fa"></path><path d="M1920 517L1695.7 389L1666.7 551Z" fill="#b8c3cc" stroke="#b8c3cc"></path><path d="M0 347L0 568L189.3 506Z" fill="#d1d9de" stroke="#d1d9de"></path><path d="M0 0L0 195L218.3 147Z" fill="#eaeef1" stroke="#eaeef1"></path><path d="M1920 517L1666.7 551L1920 719Z" fill="#f0f4f5" stroke="#f0f4f5"></path><path d="M1743.7 156L1920 0L1666.7 0Z" fill="#c4ced5" stroke="#c4ced5"></path><path d="M1920 719L1666.7 551L1686.7 750Z" fill="#d7dee3" stroke="#d7dee3"></path><path d="M207.3 930L204.3 1080L399.7 1080Z" fill="#f0f4f5" stroke="#f0f4f5"></path><path d="M0 1080L204.3 1080L207.3 930Z" fill="#dde3e8" stroke="#dde3e8"></path><path d="M0 568L0 743L190.3 710Z" fill="#e4e9ec" stroke="#e4e9ec"></path><path d="M1492.3 1080L1704.7 1080L1514.3 876Z" fill="#f7f9fa" stroke="#f7f9fa"></path><path d="M1920 875L1920 719L1686.7 750Z" fill="#dde3e8" stroke="#dde3e8"></path><path d="M1920 356L1920 149L1743.7 156Z" fill="#e4e9ec" stroke="#e4e9ec"></path><path d="M223.3 0L0 0L218.3 147Z" fill="#bec8d1" stroke="#bec8d1"></path><path d="M1920 875L1686.7 750L1727.7 924Z" fill="#c4ced5" stroke="#c4ced5"></path><path d="M0 743L0 909L190.3 710Z" fill="#d1d9de" stroke="#d1d9de"></path><path d="M1920 149L1920 0L1743.7 156Z" fill="#c4ced5" stroke="#c4ced5"></path><path d="M1920 1080L1920 875L1727.7 924Z" fill="#e4e9ec" stroke="#e4e9ec"></path><path d="M0 909L0 1080L207.3 930Z" fill="#e4e9ec" stroke="#e4e9ec"></path><path d="M1704.7 1080L1920 1080L1727.7 924Z" fill="#bec8d1" stroke="#bec8d1"></path></g></svg>