<svg id="visual" viewBox="0 0 1920 1080" width="1920" height="1080" xmlns="http://www.w3.org/2000/svg" xmlns:xlink="http://www.w3.org/1999/xlink" version="1.1"><g stroke-width="1" stroke-linejoin="bevel"><path d="M1011 499L896 583L1044 604Z" fill="#ecf1f4" stroke="#ecf1f4"></path><path d="M1011 499L890 479L896 583Z" fill="#f1f5f7" stroke="#f1f5f7"></path><path d="M896 583L924 705L1044 604Z" fill="#f1f5f7" stroke="#f1f5f7"></path><path d="M924 705L1026 746L1044 604Z" fill="#e1e9ef" stroke="#e1e9ef"></path><path d="M1165 631L1143 477L1044 604Z" fill="#dce5ec" stroke="#dce5ec"></path><path d="M1044 604L1143 477L1011 499Z" fill="#e4ebf0" stroke="#e4ebf0"></path><path d="M1011 499L927 365L890 479Z" fill="#e1e9ef" stroke="#e1e9ef"></path><path d="M1152 719L1165 631L1044 604Z" fill="#ecf1f4" stroke="#ecf1f4"></path><path d="M1012 359L927 365L1011 499Z" fill="#f4f7f9" stroke="#f4f7f9"></path><path d="M1143 477L1012 359L1011 499Z" fill="#f4f7f9" stroke="#f4f7f9"></path><path d="M755 623L793 700L896 583Z" fill="#e4ebf0" stroke="#e4ebf0"></path><path d="M896 583L793 700L924 705Z" fill="#e4ebf0" stroke="#e4ebf0"></path><path d="M924 705L1008 829L1026 746Z" fill="#dfe7ed" stroke="#dfe7ed"></path><path d="M755 623L896 583L763 459Z" fill="#e9eff3" stroke="#e9eff3"></path><path d="M763 459L896 583L890 479Z" fill="#ecf1f4" stroke="#ecf1f4"></path><path d="M1026 746L1152 719L1044 604Z" fill="#dce5ec" stroke="#dce5ec"></path><path d="M794 330L763 459L890 479Z" fill="#ecf1f4" stroke="#ecf1f4"></path><path d="M887 870L1008 829L924 705Z" fill="#dfe7ed" stroke="#dfe7ed"></path><path d="M1026 746L1144 862L1152 719Z" fill="#f1f5f7" stroke="#f1f5f7"></path><path d="M1291 470L1162 356L1143 477Z" fill="#dce5ec" stroke="#dce5ec"></path><path d="M1143 477L1162 356L1012 359Z" fill="#eef3f6" stroke="#eef3f6"></path><path d="M1152 719L1255 629L1165 631Z" fill="#f4f7f9" stroke="#f4f7f9"></path><path d="M1165 631L1255 629L1143 477Z" fill="#e1e9ef" stroke="#e1e9ef"></path><path d="M927 365L794 330L890 479Z" fill="#e9eff3" stroke="#e9eff3"></path><path d="M912 225L794 330L927 365Z" fill="#f7f9fa" stroke="#f7f9fa"></path><path d="M912 225L927 365L1012 359Z" fill="#f7f9fa" stroke="#f7f9fa"></path><path d="M793 700L887 870L924 705Z" fill="#e6edf2" stroke="#e6edf2"></path><path d="M652 474L658 625L755 623Z" fill="#e6edf2" stroke="#e6edf2"></path><path d="M755 623L669 726L793 700Z" fill="#dce5ec" stroke="#dce5ec"></path><path d="M793 700L768 847L887 870Z" fill="#e4ebf0" stroke="#e4ebf0"></path><path d="M652 474L755 623L763 459Z" fill="#e4ebf0" stroke="#e4ebf0"></path><path d="M1255 629L1291 470L1143 477Z" fill="#f1f5f7" stroke="#f1f5f7"></path><path d="M626 360L652 474L763 459Z" fill="#ecf1f4" stroke="#ecf1f4"></path><path d="M1152 719L1275 721L1255 629Z" fill="#dfe7ed" stroke="#dfe7ed"></path><path d="M1431 604L1388 471L1291 470Z" fill="#e6edf2" stroke="#e6edf2"></path><path d="M1307 808L1275 721L1152 719Z" fill="#f7f9fa" stroke="#f7f9fa"></path><path d="M996 958L1144 862L1008 829Z" fill="#e4ebf0" stroke="#e4ebf0"></path><path d="M1008 829L1144 862L1026 746Z" fill="#dfe7ed" stroke="#dfe7ed"></path><path d="M658 625L669 726L755 623Z" fill="#dfe7ed" stroke="#dfe7ed"></path><path d="M669 726L768 847L793 700Z" fill="#e1e9ef" stroke="#e1e9ef"></path><path d="M1036 209L912 225L1012 359Z" fill="#f4f7f9" stroke="#f4f7f9"></path><path d="M1291 470L1266 351L1162 356Z" fill="#f7f9fa" stroke="#f7f9fa"></path><path d="M1146 217L1036 209L1012 359Z" fill="#f7f9fa" stroke="#f7f9fa"></path><path d="M1146 217L1012 359L1162 356Z" fill="#dce5ec" stroke="#dce5ec"></path><path d="M775 956L887 930L887 870Z" fill="#eef3f6" stroke="#eef3f6"></path><path d="M887 870L996 958L1008 829Z" fill="#f7f9fa" stroke="#f7f9fa"></path><path d="M887 930L996 958L887 870Z" fill="#dce5ec" stroke="#dce5ec"></path><path d="M1251 254L1146 217L1162 356Z" fill="#f4f7f9" stroke="#f4f7f9"></path><path d="M912 225L739 238L794 330Z" fill="#f7f9fa" stroke="#f7f9fa"></path><path d="M794 330L626 360L763 459Z" fill="#eef3f6" stroke="#eef3f6"></path><path d="M776 129L739 238L912 225Z" fill="#f4f7f9" stroke="#f4f7f9"></path><path d="M739 238L626 360L794 330Z" fill="#e1e9ef" stroke="#e1e9ef"></path><path d="M652 474L526 507L658 625Z" fill="#eef3f6" stroke="#eef3f6"></path><path d="M518 833L633 854L669 726Z" fill="#f7f9fa" stroke="#f7f9fa"></path><path d="M1144 862L1307 808L1152 719Z" fill="#e6edf2" stroke="#e6edf2"></path><path d="M1431 604L1291 470L1255 629Z" fill="#f1f5f7" stroke="#f1f5f7"></path><path d="M1275 976L1307 808L1144 862Z" fill="#ecf1f4" stroke="#ecf1f4"></path><path d="M1266 351L1251 254L1162 356Z" fill="#f1f5f7" stroke="#f1f5f7"></path><path d="M1376 259L1251 254L1266 351Z" fill="#eef3f6" stroke="#eef3f6"></path><path d="M1375 731L1255 629L1275 721Z" fill="#ecf1f4" stroke="#ecf1f4"></path><path d="M1291 470L1388 362L1266 351Z" fill="#e4ebf0" stroke="#e4ebf0"></path><path d="M1307 808L1375 731L1275 721Z" fill="#dce5ec" stroke="#dce5ec"></path><path d="M768 847L775 956L887 870Z" fill="#f4f7f9" stroke="#f4f7f9"></path><path d="M907 1080L1039 1080L996 958Z" fill="#ecf1f4" stroke="#ecf1f4"></path><path d="M633 854L775 956L768 847Z" fill="#e1e9ef" stroke="#e1e9ef"></path><path d="M1147 142L1039 131L1036 209Z" fill="#dfe7ed" stroke="#dfe7ed"></path><path d="M1036 209L1039 131L912 225Z" fill="#ecf1f4" stroke="#ecf1f4"></path><path d="M1147 142L1036 209L1146 217Z" fill="#eef3f6" stroke="#eef3f6"></path><path d="M491 751L669 726L658 625Z" fill="#dfe7ed" stroke="#dfe7ed"></path><path d="M669 726L633 854L768 847Z" fill="#e1e9ef" stroke="#e1e9ef"></path><path d="M626 360L526 507L652 474Z" fill="#dfe7ed" stroke="#dfe7ed"></path><path d="M1039 1080L1170 982L996 958Z" fill="#e4ebf0" stroke="#e4ebf0"></path><path d="M996 958L1170 982L1144 862Z" fill="#e6edf2" stroke="#e6edf2"></path><path d="M1307 808L1393 815L1375 731Z" fill="#e6edf2" stroke="#e6edf2"></path><path d="M1375 731L1431 604L1255 629Z" fill="#f1f5f7" stroke="#f1f5f7"></path><path d="M1039 131L885 118L912 225Z" fill="#dfe7ed" stroke="#dfe7ed"></path><path d="M1252 122L1147 142L1146 217Z" fill="#ecf1f4" stroke="#ecf1f4"></path><path d="M1523 459L1388 362L1388 471Z" fill="#dfe7ed" stroke="#dfe7ed"></path><path d="M1388 471L1388 362L1291 470Z" fill="#dfe7ed" stroke="#dfe7ed"></path><path d="M1251 254L1252 122L1146 217Z" fill="#e1e9ef" stroke="#e1e9ef"></path><path d="M885 118L776 129L912 225Z" fill="#e1e9ef" stroke="#e1e9ef"></path><path d="M739 238L631 223L626 360Z" fill="#eef3f6" stroke="#eef3f6"></path><path d="M626 360L485 337L526 507Z" fill="#dfe7ed" stroke="#dfe7ed"></path><path d="M526 507L492 611L658 625Z" fill="#f7f9fa" stroke="#f7f9fa"></path><path d="M661 109L631 223L739 238Z" fill="#dfe7ed" stroke="#dfe7ed"></path><path d="M1275 976L1393 815L1307 808Z" fill="#dce5ec" stroke="#dce5ec"></path><path d="M1375 731L1516 711L1431 604Z" fill="#f7f9fa" stroke="#f7f9fa"></path><path d="M1170 982L1275 976L1144 862Z" fill="#f1f5f7" stroke="#f1f5f7"></path><path d="M1545 365L1376 259L1388 362Z" fill="#e6edf2" stroke="#e6edf2"></path><path d="M1388 362L1376 259L1266 351Z" fill="#e9eff3" stroke="#e9eff3"></path><path d="M907 1080L996 958L887 930Z" fill="#f1f5f7" stroke="#f1f5f7"></path><path d="M1170 982L1181 1080L1275 976Z" fill="#e9eff3" stroke="#e9eff3"></path><path d="M749 1080L907 1080L775 956Z" fill="#dfe7ed" stroke="#dfe7ed"></path><path d="M775 956L907 1080L887 930Z" fill="#f4f7f9" stroke="#f4f7f9"></path><path d="M492 611L491 751L658 625Z" fill="#dce5ec" stroke="#dce5ec"></path><path d="M633 854L652 987L775 956Z" fill="#f1f5f7" stroke="#f1f5f7"></path><path d="M1395 144L1252 122L1251 254Z" fill="#e6edf2" stroke="#e6edf2"></path><path d="M1147 142L1050 0L1039 131Z" fill="#f7f9fa" stroke="#f7f9fa"></path><path d="M1039 131L1050 0L885 118Z" fill="#ecf1f4" stroke="#ecf1f4"></path><path d="M491 751L518 833L669 726Z" fill="#f1f5f7" stroke="#f1f5f7"></path><path d="M518 980L652 987L633 854Z" fill="#dce5ec" stroke="#dce5ec"></path><path d="M536 208L485 337L626 360Z" fill="#ecf1f4" stroke="#ecf1f4"></path><path d="M526 507L363 585L492 611Z" fill="#e9eff3" stroke="#e9eff3"></path><path d="M492 611L400 739L491 751Z" fill="#f1f5f7" stroke="#f1f5f7"></path><path d="M1039 1080L1181 1080L1170 982Z" fill="#f4f7f9" stroke="#f4f7f9"></path><path d="M776 129L661 109L739 238Z" fill="#e9eff3" stroke="#e9eff3"></path><path d="M631 223L536 208L626 360Z" fill="#e6edf2" stroke="#e6edf2"></path><path d="M735 0L661 109L776 129Z" fill="#f7f9fa" stroke="#f7f9fa"></path><path d="M867 0L776 129L885 118Z" fill="#e4ebf0" stroke="#e4ebf0"></path><path d="M652 987L749 1080L775 956Z" fill="#e6edf2" stroke="#e6edf2"></path><path d="M1431 604L1523 459L1388 471Z" fill="#f1f5f7" stroke="#f1f5f7"></path><path d="M1541 606L1523 459L1431 604Z" fill="#e6edf2" stroke="#e6edf2"></path><path d="M1535 870L1516 711L1393 815Z" fill="#e4ebf0" stroke="#e4ebf0"></path><path d="M1393 815L1516 711L1375 731Z" fill="#f4f7f9" stroke="#f4f7f9"></path><path d="M1424 985L1393 815L1275 976Z" fill="#e6edf2" stroke="#e6edf2"></path><path d="M525 122L536 208L631 223Z" fill="#f4f7f9" stroke="#f4f7f9"></path><path d="M1516 711L1541 606L1431 604Z" fill="#e6edf2" stroke="#e6edf2"></path><path d="M1174 0L1050 0L1147 142Z" fill="#e6edf2" stroke="#e6edf2"></path><path d="M1050 0L867 0L885 118Z" fill="#eef3f6" stroke="#eef3f6"></path><path d="M652 987L665 1080L749 1080Z" fill="#dfe7ed" stroke="#dfe7ed"></path><path d="M514 1080L665 1080L652 987Z" fill="#dce5ec" stroke="#dce5ec"></path><path d="M1376 259L1395 144L1251 254Z" fill="#e6edf2" stroke="#e6edf2"></path><path d="M1252 122L1174 0L1147 142Z" fill="#ecf1f4" stroke="#ecf1f4"></path><path d="M1551 218L1395 144L1376 259Z" fill="#f1f5f7" stroke="#f1f5f7"></path><path d="M363 585L400 739L492 611Z" fill="#eef3f6" stroke="#eef3f6"></path><path d="M491 751L392 849L518 833Z" fill="#dce5ec" stroke="#dce5ec"></path><path d="M518 833L518 980L633 854Z" fill="#e6edf2" stroke="#e6edf2"></path><path d="M1181 1080L1290 1080L1275 976Z" fill="#e4ebf0" stroke="#e4ebf0"></path><path d="M1283 0L1174 0L1252 122Z" fill="#e9eff3" stroke="#e9eff3"></path><path d="M1631 359L1545 365L1523 459Z" fill="#ecf1f4" stroke="#ecf1f4"></path><path d="M1523 459L1545 365L1388 362Z" fill="#f7f9fa" stroke="#f7f9fa"></path><path d="M383 340L378 449L485 337Z" fill="#f1f5f7" stroke="#f1f5f7"></path><path d="M485 337L378 449L526 507Z" fill="#f7f9fa" stroke="#f7f9fa"></path><path d="M378 449L363 585L526 507Z" fill="#dfe7ed" stroke="#dfe7ed"></path><path d="M1290 1080L1424 985L1275 976Z" fill="#dfe7ed" stroke="#dfe7ed"></path><path d="M392 849L518 980L518 833Z" fill="#dfe7ed" stroke="#dfe7ed"></path><path d="M867 0L735 0L776 129Z" fill="#e1e9ef" stroke="#e1e9ef"></path><path d="M661 109L525 122L631 223Z" fill="#f7f9fa" stroke="#f7f9fa"></path><path d="M644 0L525 122L661 109Z" fill="#e4ebf0" stroke="#e4ebf0"></path><path d="M410 257L383 340L485 337Z" fill="#e4ebf0" stroke="#e4ebf0"></path><path d="M410 257L485 337L536 208Z" fill="#e4ebf0" stroke="#e4ebf0"></path><path d="M378 449L286 488L363 585Z" fill="#e9eff3" stroke="#e9eff3"></path><path d="M1424 985L1535 870L1393 815Z" fill="#f1f5f7" stroke="#f1f5f7"></path><path d="M1516 711L1637 717L1541 606Z" fill="#dfe7ed" stroke="#dfe7ed"></path><path d="M413 94L410 257L536 208Z" fill="#e6edf2" stroke="#e6edf2"></path><path d="M400 739L392 849L491 751Z" fill="#dce5ec" stroke="#dce5ec"></path><path d="M272 712L392 849L400 739Z" fill="#dce5ec" stroke="#dce5ec"></path><path d="M1395 144L1283 0L1252 122Z" fill="#f4f7f9" stroke="#f4f7f9"></path><path d="M735 0L644 0L661 109Z" fill="#e1e9ef" stroke="#e1e9ef"></path><path d="M1424 985L1532 935L1535 870Z" fill="#ecf1f4" stroke="#ecf1f4"></path><path d="M1503 1080L1532 935L1424 985Z" fill="#f1f5f7" stroke="#f1f5f7"></path><path d="M1643 268L1551 218L1545 365Z" fill="#e6edf2" stroke="#e6edf2"></path><path d="M1545 365L1551 218L1376 259Z" fill="#dfe7ed" stroke="#dfe7ed"></path><path d="M1395 144L1382 0L1283 0Z" fill="#e4ebf0" stroke="#e4ebf0"></path><path d="M1654 567L1523 459L1541 606Z" fill="#dce5ec" stroke="#dce5ec"></path><path d="M1666 870L1637 717L1535 870Z" fill="#e6edf2" stroke="#e6edf2"></path><path d="M1535 870L1637 717L1516 711Z" fill="#eef3f6" stroke="#eef3f6"></path><path d="M1637 717L1654 567L1541 606Z" fill="#ecf1f4" stroke="#ecf1f4"></path><path d="M364 1080L514 1080L518 980Z" fill="#f1f5f7" stroke="#f1f5f7"></path><path d="M518 980L514 1080L652 987Z" fill="#f1f5f7" stroke="#f1f5f7"></path><path d="M1668 463L1631 359L1523 459Z" fill="#e1e9ef" stroke="#e1e9ef"></path><path d="M1290 1080L1438 1080L1424 985Z" fill="#e1e9ef" stroke="#e1e9ef"></path><path d="M239 386L378 449L383 340Z" fill="#e4ebf0" stroke="#e4ebf0"></path><path d="M239 386L286 488L378 449Z" fill="#e1e9ef" stroke="#e1e9ef"></path><path d="M363 585L272 712L400 739Z" fill="#e6edf2" stroke="#e6edf2"></path><path d="M1517 0L1382 0L1395 144Z" fill="#dce5ec" stroke="#dce5ec"></path><path d="M1798 459L1668 463L1812 573Z" fill="#f1f5f7" stroke="#f1f5f7"></path><path d="M1654 567L1668 463L1523 459Z" fill="#e4ebf0" stroke="#e4ebf0"></path><path d="M286 488L263 613L363 585Z" fill="#ecf1f4" stroke="#ecf1f4"></path><path d="M392 849L353 989L518 980Z" fill="#e9eff3" stroke="#e9eff3"></path><path d="M263 613L272 712L363 585Z" fill="#e4ebf0" stroke="#e4ebf0"></path><path d="M525 122L413 94L536 208Z" fill="#dfe7ed" stroke="#dfe7ed"></path><path d="M249 272L239 386L383 340Z" fill="#dfe7ed" stroke="#dfe7ed"></path><path d="M644 0L524 0L525 122Z" fill="#e1e9ef" stroke="#e1e9ef"></path><path d="M1631 359L1643 268L1545 365Z" fill="#f1f5f7" stroke="#f1f5f7"></path><path d="M1551 218L1565 99L1395 144Z" fill="#dfe7ed" stroke="#dfe7ed"></path><path d="M1792 351L1643 268L1631 359Z" fill="#e9eff3" stroke="#e9eff3"></path><path d="M524 0L413 94L525 122Z" fill="#e9eff3" stroke="#e9eff3"></path><path d="M1438 1080L1503 1080L1424 985Z" fill="#e1e9ef" stroke="#e1e9ef"></path><path d="M1532 935L1666 870L1535 870Z" fill="#f7f9fa" stroke="#f7f9fa"></path><path d="M230 936L353 989L392 849Z" fill="#dfe7ed" stroke="#dfe7ed"></path><path d="M1665 152L1565 99L1551 218Z" fill="#e6edf2" stroke="#e6edf2"></path><path d="M1631 987L1666 870L1532 935Z" fill="#f4f7f9" stroke="#f4f7f9"></path><path d="M1812 573L1668 463L1654 567Z" fill="#e6edf2" stroke="#e6edf2"></path><path d="M249 272L383 340L410 257Z" fill="#dce5ec" stroke="#dce5ec"></path><path d="M286 488L138 570L263 613Z" fill="#dfe7ed" stroke="#dfe7ed"></path><path d="M95 693L231 814L272 712Z" fill="#eef3f6" stroke="#eef3f6"></path><path d="M1503 1080L1631 987L1532 935Z" fill="#ecf1f4" stroke="#ecf1f4"></path><path d="M95 693L272 712L263 613Z" fill="#dce5ec" stroke="#dce5ec"></path><path d="M272 712L231 814L392 849Z" fill="#dce5ec" stroke="#dce5ec"></path><path d="M271 102L249 272L410 257Z" fill="#f4f7f9" stroke="#f4f7f9"></path><path d="M1565 99L1517 0L1395 144Z" fill="#ecf1f4" stroke="#ecf1f4"></path><path d="M261 1080L364 1080L353 989Z" fill="#f7f9fa" stroke="#f7f9fa"></path><path d="M353 989L364 1080L518 980Z" fill="#ecf1f4" stroke="#ecf1f4"></path><path d="M1643 268L1665 152L1551 218Z" fill="#f7f9fa" stroke="#f7f9fa"></path><path d="M1565 99L1652 0L1517 0Z" fill="#e9eff3" stroke="#e9eff3"></path><path d="M1813 234L1665 152L1643 268Z" fill="#f1f5f7" stroke="#f1f5f7"></path><path d="M524 0L382 0L413 94Z" fill="#e6edf2" stroke="#e6edf2"></path><path d="M413 94L271 102L410 257Z" fill="#e4ebf0" stroke="#e4ebf0"></path><path d="M231 814L230 936L392 849Z" fill="#e6edf2" stroke="#e6edf2"></path><path d="M1812 573L1654 567L1801 719Z" fill="#e9eff3" stroke="#e9eff3"></path><path d="M1668 463L1792 351L1631 359Z" fill="#e1e9ef" stroke="#e1e9ef"></path><path d="M1654 567L1637 717L1801 719Z" fill="#f1f5f7" stroke="#f1f5f7"></path><path d="M116 471L138 570L286 488Z" fill="#f7f9fa" stroke="#f7f9fa"></path><path d="M231 814L157 944L230 936Z" fill="#e6edf2" stroke="#e6edf2"></path><path d="M116 471L286 488L239 386Z" fill="#dce5ec" stroke="#dce5ec"></path><path d="M1801 719L1637 717L1781 857Z" fill="#f4f7f9" stroke="#f4f7f9"></path><path d="M1781 857L1637 717L1666 870Z" fill="#e9eff3" stroke="#e9eff3"></path><path d="M382 0L271 102L413 94Z" fill="#dce5ec" stroke="#dce5ec"></path><path d="M111 367L116 471L239 386Z" fill="#f1f5f7" stroke="#f1f5f7"></path><path d="M1798 459L1792 351L1668 463Z" fill="#e6edf2" stroke="#e6edf2"></path><path d="M1813 234L1792 351L1920 255Z" fill="#dce5ec" stroke="#dce5ec"></path><path d="M1503 1080L1653 1080L1631 987Z" fill="#e9eff3" stroke="#e9eff3"></path><path d="M1815 976L1781 857L1666 870Z" fill="#ecf1f4" stroke="#ecf1f4"></path><path d="M1815 976L1666 870L1631 987Z" fill="#dce5ec" stroke="#dce5ec"></path><path d="M111 367L239 386L118 272Z" fill="#e4ebf0" stroke="#e4ebf0"></path><path d="M157 944L261 1080L230 936Z" fill="#eef3f6" stroke="#eef3f6"></path><path d="M230 936L261 1080L353 989Z" fill="#e6edf2" stroke="#e6edf2"></path><path d="M1763 115L1652 0L1665 152Z" fill="#e1e9ef" stroke="#e1e9ef"></path><path d="M1665 152L1652 0L1565 99Z" fill="#f7f9fa" stroke="#f7f9fa"></path><path d="M118 272L239 386L249 272Z" fill="#e9eff3" stroke="#e9eff3"></path><path d="M0 572L95 693L138 570Z" fill="#f1f5f7" stroke="#f1f5f7"></path><path d="M138 570L95 693L263 613Z" fill="#eef3f6" stroke="#eef3f6"></path><path d="M0 572L138 570L0 498Z" fill="#dce5ec" stroke="#dce5ec"></path><path d="M105 853L157 944L231 814Z" fill="#dce5ec" stroke="#dce5ec"></path><path d="M1920 369L1792 351L1798 459Z" fill="#f4f7f9" stroke="#f4f7f9"></path><path d="M1792 351L1813 234L1643 268Z" fill="#f1f5f7" stroke="#f1f5f7"></path><path d="M107 113L118 272L249 272Z" fill="#eef3f6" stroke="#eef3f6"></path><path d="M1813 234L1763 115L1665 152Z" fill="#dfe7ed" stroke="#dfe7ed"></path><path d="M95 693L105 853L231 814Z" fill="#e4ebf0" stroke="#e4ebf0"></path><path d="M382 0L249 0L271 102Z" fill="#e6edf2" stroke="#e6edf2"></path><path d="M271 102L107 113L249 272Z" fill="#f1f5f7" stroke="#f1f5f7"></path><path d="M1653 1080L1815 976L1631 987Z" fill="#f4f7f9" stroke="#f4f7f9"></path><path d="M1920 709L1812 573L1801 719Z" fill="#e1e9ef" stroke="#e1e9ef"></path><path d="M1920 709L1920 574L1812 573Z" fill="#f7f9fa" stroke="#f7f9fa"></path><path d="M1812 573L1920 470L1798 459Z" fill="#dce5ec" stroke="#dce5ec"></path><path d="M1920 709L1801 719L1920 834Z" fill="#dce5ec" stroke="#dce5ec"></path><path d="M1920 574L1920 470L1812 573Z" fill="#ecf1f4" stroke="#ecf1f4"></path><path d="M1920 91L1786 0L1763 115Z" fill="#dfe7ed" stroke="#dfe7ed"></path><path d="M1920 834L1801 719L1781 857Z" fill="#f1f5f7" stroke="#f1f5f7"></path><path d="M1920 470L1920 369L1798 459Z" fill="#e1e9ef" stroke="#e1e9ef"></path><path d="M1653 1080L1800 1080L1815 976Z" fill="#f7f9fa" stroke="#f7f9fa"></path><path d="M1815 976L1920 834L1781 857Z" fill="#eef3f6" stroke="#eef3f6"></path><path d="M0 498L138 570L116 471Z" fill="#dfe7ed" stroke="#dfe7ed"></path><path d="M95 693L0 705L105 853Z" fill="#dce5ec" stroke="#dce5ec"></path><path d="M0 498L116 471L0 390Z" fill="#f4f7f9" stroke="#f4f7f9"></path><path d="M0 390L111 367L0 240Z" fill="#f7f9fa" stroke="#f7f9fa"></path><path d="M0 390L116 471L111 367Z" fill="#e4ebf0" stroke="#e4ebf0"></path><path d="M0 983L139 1080L157 944Z" fill="#f4f7f9" stroke="#f4f7f9"></path><path d="M157 944L139 1080L261 1080Z" fill="#e4ebf0" stroke="#e4ebf0"></path><path d="M0 983L157 944L105 853Z" fill="#ecf1f4" stroke="#ecf1f4"></path><path d="M153 0L107 113L271 102Z" fill="#dce5ec" stroke="#dce5ec"></path><path d="M1920 991L1920 834L1815 976Z" fill="#e6edf2" stroke="#e6edf2"></path><path d="M0 572L0 705L95 693Z" fill="#f4f7f9" stroke="#f4f7f9"></path><path d="M0 240L111 367L118 272Z" fill="#dce5ec" stroke="#dce5ec"></path><path d="M1920 91L1763 115L1813 234Z" fill="#dfe7ed" stroke="#dfe7ed"></path><path d="M1763 115L1786 0L1652 0Z" fill="#e9eff3" stroke="#e9eff3"></path><path d="M1920 369L1920 255L1792 351Z" fill="#e9eff3" stroke="#e9eff3"></path><path d="M249 0L153 0L271 102Z" fill="#e6edf2" stroke="#e6edf2"></path><path d="M0 705L0 867L105 853Z" fill="#f4f7f9" stroke="#f4f7f9"></path><path d="M107 113L0 240L118 272Z" fill="#e4ebf0" stroke="#e4ebf0"></path><path d="M0 133L0 240L107 113Z" fill="#f1f5f7" stroke="#f1f5f7"></path><path d="M1920 1080L1920 991L1815 976Z" fill="#e6edf2" stroke="#e6edf2"></path><path d="M0 867L0 983L105 853Z" fill="#f4f7f9" stroke="#f4f7f9"></path><path d="M1920 255L1920 91L1813 234Z" fill="#f4f7f9" stroke="#f4f7f9"></path><path d="M0 0L0 133L107 113Z" fill="#ecf1f4" stroke="#ecf1f4"></path><path d="M1800 1080L1920 1080L1815 976Z" fill="#dfe7ed" stroke="#dfe7ed"></path><path d="M0 983L0 1080L139 1080Z" fill="#e9eff3" stroke="#e9eff3"></path><path d="M1920 91L1920 0L1786 0Z" fill="#f7f9fa" stroke="#f7f9fa"></path><path d="M153 0L0 0L107 113Z" fill="#e4ebf0" stroke="#e4ebf0"></path></g></svg>