<?xml version="1.0" encoding="utf-8"?>
<!-- Generator: Adobe Illustrator 26.2.1, SVG Export Plug-In . SVG Version: 6.00 Build 0)  -->
<svg version="1.1" id="Capa_1" xmlns="http://www.w3.org/2000/svg" xmlns:xlink="http://www.w3.org/1999/xlink" x="0px" y="0px"
	 viewBox="0 0 1019.5 436.7" style="enable-background:new 0 0 1019.5 436.7;" xml:space="preserve">
<style type="text/css">
	.st0{fill:#FFB9B9;}
	.st1{fill:#FFB8B8;}
	.st2{fill:#62526C;}
	.st3{fill:#CCCCCC;}
	.st4{opacity:0.1;enable-background:new    ;}
	.st5{fill:#CEE6E6;}
	.st6{fill:#FFFFFF;}
	.st7{fill:#F2F2F2;}
	.st8{fill:#00BFA6;}
	.st9{fill:#3F3D56;}
</style>
<path class="st0" d="M223.8,243.6c0-5.4-4.3-9.8-9.7-9.8s-9.8,4.3-9.8,9.7c0,0.5,0,0.9,0.1,1.4l-28,36.7c-2.4,4.9-1.7,10.8,1.8,14.9
	l2.2,2.6l10.1-2l11.4-10.1l-1.3-11.4l14.1-22.2l0,0C219.8,253,223.8,248.8,223.8,243.6z"/>
<polygon class="st1" points="30,423 25.5,406 88.8,380.3 95.5,405.3 "/>
<path class="st2" d="M14.7,431.7L0,377l0.7-0.2c11.8-3.2,23.9,3.8,27.1,15.6l0,0l9,33.4L14.7,431.7z"/>
<polygon class="st1" points="117.3,420.3 103.1,409.9 136.2,350.1 157.2,365.4 "/>
<path class="st2" d="M110.9,436.7L65,403.3l0.4-0.6c7.2-9.9,21-12,30.8-4.9l0,0l28,20.4L110.9,436.7z"/>
<path class="st2" d="M238.2,336.7l-35.8-34.8c-6.5-6.3-16.6-6.8-23.7-1.3l-67.6,75.1l6.1,9.4l64.5-43.7l43.7,57.1l41.7-20.8
	L238.2,336.7z"/>
<path class="st0" d="M222.7,344.1l-26.2-2l-19-4.6c-2.9-4.5-8.9-5.9-13.5-2.9c-4.5,2.9-5.9,8.9-2.9,13.5c2.9,4.5,8.9,5.9,13.5,2.9
	c0.4-0.2,0.8-0.5,1.1-0.8l0,0l11.4,4.7l49.1,16.8l6-4.7L222.7,344.1z"/>
<polygon class="st2" points="285.9,416.7 271.1,426.1 253.7,426.1 172.3,395.9 53.3,417.4 50,391.8 158.9,344.1 254.3,375.7 "/>
<circle class="st0" cx="254.3" cy="227.1" r="26.2"/>
<path class="st3" d="M322.2,331.8c0,15.8-2.5,31.5-7.4,46.6l-2,6l-9.4,43l-10.1,2.7l-7.4-9.4L271.1,410l-10.8-17.5l-9.2-15.4
	l-2.9-4.8l-10.1-50.4l-38.3-21.5l-12.8-2l2.7-7.4l11.4-15.5l11.4-1.3l3.4-2.7l2.7,1.3l14.8,5.7l48.1-20.3l7,1.1l24.2,20.2
	C319,296.3,322.2,314,322.2,331.8z"/>
<polygon class="st4" points="314.8,325.9 289.3,342.8 251.2,377.1 248.3,372.3 240.2,332 242.2,332 263.1,293.7 "/>
<polygon class="st3" points="263.1,289.6 242.2,328 230.1,341.4 219.4,344.1 248.3,375.7 289.3,338.7 314.8,321.9 "/>
<path class="st2" d="M233.9,207.6l-2.8,1.1c-1.8-1.2-2.3-3.7-1.1-5.5l0,0c0,0,0,0,0-0.1l-5.2-0.2c13.1-17.5,38-21,55.5-7.9
	c1.3,1,2.5,2,3.7,3.1c0.2-0.8,2.8,0.8,3.9,2.4c0.4-1.3,2.8,5.1,3.7,9.7c0.4-1.5,1.9,0.9,0.6,3.3c0.9-0.1,1.2,2.1,0.6,3.3
	c0.9-0.4,0.8,2.2-0.2,3.9c1.3-0.1-0.1,27.3-20.1,25.3c-1.4-6.4-1-6-2.6-14.2c-0.8-0.8-1.6-1.5-2.4-2.3l-4.5-4
	c-5.2-4.6-10-10.3-17-12.1c-4.8-1.2-7.8-1.5-5.2-6.9c-2.4,1-4.6,2.5-7,3.4C233.6,209.2,234,208.4,233.9,207.6z"/>
<circle class="st0" cx="267.4" cy="230.2" r="4.7"/>
<rect x="47.2" y="119.7" transform="matrix(6.644879e-02 -0.9978 0.9978 6.644879e-02 -76.0059 179.725)" class="st5" width="21.6" height="21.6"/>
<path class="st3" d="M34.1,130.5l26.2,1.7l-1.7,26.2l-26.2-1.7L34.1,130.5z M59.1,133.3l-23.9-1.6l-1.6,23.9l23.9,1.6L59.1,133.3z"
	/>
<rect x="150.8" y="57.1" transform="matrix(0.9777 -0.2101 0.2101 0.9777 -10.6562 35.4666)" class="st5" width="21.6" height="21.6"/>
<path class="st3" d="M155,44.9l5.5,25.7L134.9,76l-5.5-25.7L155,44.9z M159.2,69.6l-5-23.4l-23.4,5l5,23.4L159.2,69.6z"/>
<rect x="136.3" y="161" transform="matrix(0.7298 -0.6836 0.6836 0.7298 -77.7323 146.9805)" class="st5" width="21.6" height="21.6"/>
<path class="st3" d="M163.6,154.3l-19.2,17.9L126.5,153l19.2-17.9L163.6,154.3z M144.5,170.7l17.5-16.4l-16.4-17.5l-17.5,16.4
	L144.5,170.7z"/>
<path class="st2" d="M963.3,0H323.9c-9.7,0-17.6,7.9-17.6,17.6l0,0v356.3c0,9.7,7.9,17.6,17.6,17.6l0,0h639.4
	c9.7,0,17.6-7.9,17.6-17.6V17.6C980.9,7.9,973,0,963.3,0L963.3,0z"/>
<rect x="329.9" y="31.1" class="st6" width="627.4" height="353.9"/>
<circle class="st6" cx="643" cy="15" r="6.4"/>
<polygon class="st7" points="777.9,385 329.9,385 329.9,31.1 "/>
<circle class="st8" cx="428.1" cy="298.2" r="60.3"/>
<path class="st9" d="M441.5,343.6c-41.4,0-75-33.6-75-75s33.6-75,75-75s75,33.6,75,75S482.9,343.6,441.5,343.6L441.5,343.6z
	 M441.5,194.5c-40.9,0-74,33.1-74,74s33.1,74,74,74s74-33.1,74-74S482.4,194.5,441.5,194.5L441.5,194.5L441.5,194.5z"/>
<rect x="753.4" y="215" class="st2" width="58.6" height="12.2"/>
<rect x="698" y="148.6" class="st2" width="169.5" height="5.2"/>
<rect x="698" y="169.2" class="st2" width="169.5" height="5.2"/>
<rect x="698" y="189.9" class="st2" width="169.5" height="5.2"/>
<rect x="888.4" y="52.3" class="st8" width="24.5" height="24.5"/>
<path class="st3" d="M924.3,88.1h-29.7V58.4h29.7V88.1z M895.8,86.9H923V59.7h-27.2V86.9z"/>
<path class="st2" d="M998.5,378.6h-61.2v-4.4c0-0.5-0.4-0.9-0.9-0.9l0,0h-21c-0.5,0-0.9,0.4-0.9,0.9l0,0v4.4h-13.1v-4.4
	c0-0.5-0.4-0.9-0.9-0.9l0,0h-21c-0.5,0-0.9,0.4-0.9,0.9l0,0l0,0v4.4h-13.1v-4.4c0-0.5-0.4-0.9-0.9-0.9l0,0h-21
	c-0.5,0-0.9,0.4-0.9,0.9l0,0l0,0v4.4h-13.1v-4.4c0-0.5-0.4-0.9-0.9-0.9l0,0h-21c-0.5,0-0.9,0.4-0.9,0.9l0,0v4.4h-13.1v-4.4
	c0-0.5-0.4-0.9-0.9-0.9l0,0h-21c-0.5,0-0.9,0.4-0.9,0.9l0,0l0,0v4.4h-13.1v-4.4c0-0.5-0.4-0.9-0.9-0.9l0,0h-21
	c-0.5,0-0.9,0.4-0.9,0.9l0,0l0,0v4.4h-13.1v-4.4c0-0.5-0.4-0.9-0.9-0.9l0,0H556.8c-0.5,0-0.9,0.4-0.9,0.9l0,0l0,0v4.4h-13.1v-4.4
	c0-0.5-0.4-0.9-0.9-0.9l0,0h-21c-0.5,0-0.9,0.4-0.9,0.9l0,0l0,0v4.4h-13.1v-4.4c0-0.5-0.4-0.9-0.9-0.9l0,0h-21
	c-0.5,0-0.9,0.4-0.9,0.9l0,0l0,0v4.4H471v-4.4c0-0.5-0.4-0.9-0.9-0.9l0,0h-21c-0.5,0-0.9,0.4-0.9,0.9l0,0l0,0v4.4h-13.1v-4.4
	c0-0.5-0.4-0.9-0.9-0.9l0,0h-21c-0.5,0-0.9,0.4-0.9,0.9l0,0l0,0v4.4h-13.1v-4.4c0-0.5-0.4-0.9-0.9-0.9l0,0h-21
	c-0.5,0-0.9,0.4-0.9,0.9v4.4h-13.1v-4.4c0-0.5-0.4-0.9-0.9-0.9l0,0h-21c-0.5,0-0.9,0.4-0.9,0.9l0,0v4.4h-40.2c-11.6,0-21,9.4-21,21
	v9.5c0,11.6,9.4,21,21,21h698c11.6,0,21-9.4,21-21v-9.5C1019.5,388,1010.1,378.6,998.5,378.6L998.5,378.6z"/>
</svg>
